# xmcd CD database file
#
# Track frame offsets:
#	150
#	16284
#	39497
#	56535
#	77048
#	88024
#	106331
#	125439
#	140308
#	160762
#	172915
#	183517
#
# Disc length: 2683 seconds
#
# Revision: 1
# Processed by: cddbd v1.5.1PL0 Copyright (c) Steve Scherf et al.
# Submitted via: jetAudio 5
#
DISCID=8f0a790c
DTITLE=John Cephas Phil Wiggins - Somebody Told the Truth
DYEAR=1900
DGENRE=
TTITLE0=Stack and the Devil
TTITLE1=Railroad Bill
TTITLE2=Last Fair Deal Gone Down
TTITLE3=Sick Bed Blues
TTITLE4=The Pimp in the Pink Suit
TTITLE5=Burn Your Bridges
TTITLE6=Darling Cora
TTITLE7=Forgiveness
TTITLE8=Bowling Green Strut
TTITLE9=Reno Factory
TTITLE10=Somebody Told the Truth on Me
TTITLE11=Something Smells
EXTD=
EXTT0=
EXTT1=
EXTT2=
EXTT3=
EXTT4=
EXTT5=
EXTT6=
EXTT7=
EXTT8=
EXTT9=
EXTT10=
EXTT11=
PLAYORDER=
